PathFileType	4	(X/Y/Z)	4_coords_data.trc
DataRate	CameraRate	NumFrames	NumMarkers	Units	OrigDataRate	OrigDataStartFrame	OrigNumFrames
30.0	30.0	6	21	m	30.0	10	49
Frame#	Time	THUMB_TIP	THUMB_IP	THUMB_MCP	THUMB_CMC	INDEX_TIP	INDEX_DIP	INDEX_PIP	INDEX_MCP	MIDDLE_TIP	MIDDLE_DIP	MIDDLE_PIP	MIDDLE_MCP	RING_TIP	RING_DIP	RING_PIP	RING_MCP	PINKY_TIP	PINKY_DIP	PINKY_PIP	PINKY_MCP	WRIST
X1	Y1	Z1	X2	Y2	Z2	X3	Y3	Z3	X4	Y4	Z4	X5	Y5	Z5	X6	Y6	Z6	X7	Y7	Z7	X8	Y8	Z8	X9	Y9	Z9	X10	Y10	Z10	X11	Y11	Z11	X12	Y12	Z12	X13	Y13	Z13	X14	Y14	Z14	X15	Y15	Z15	X16	Y16	Z16	X17	Y17	Z17	X18	Y18	Z18	X19	Y19	Z19	X20	Y20	Z20	X21	Y21	Z21
9	0.3	0.0030822100639343263	-0.047154998779296874	0.992468994140625	-0.0077971601486206054	-0.037289100646972655	1.01677001953125	-0.002309340000152588	-0.02132349967956543	1.0429300537109376	-0.020889900207519532	0.002822380065917968	1.0551800537109375	0.015003600120544434	-0.1367270050048828	1.0310799560546875	0.00995149040222168	-0.11551100158691406	1.0391700439453124	0.002929949998855591	-0.0954760971069336	1.0478399658203126	-0.01303499984741211	-0.06193389892578125	1.066199951171875	-0.009275750160217285	-0.04229090118408203	1.0369200439453126	-0.005780260086059571	-0.0574546012878418	1.022530029296875	-0.016560600280761718	-0.08242549896240234	1.0268199462890626	-0.04041799926757812	-0.06569259643554687	1.06477001953125	-0.022949600219726564	-0.03722969818115234	1.021760009765625	-0.022513999938964843	-0.052629398345947265	1.0089099731445312	-0.03671630096435547	-0.07513670349121093	1.0133599853515625	-0.055222698211669925	-0.058175498962402344	1.047199951171875	-0.07779550170898437	-0.1182490005493164	1.014469970703125	-0.07332740020751953	-0.09630570220947265	1.0169600219726562	-0.06999859619140625	-0.07746330261230469	1.0213699951171875	-0.06482340240478515	-0.047545501708984375	1.02893994140625	-0.052723400115966795	0.01111180019378662	1.081489990234375
10	0.3333333333333333	0.002481440067291259	-0.04687110137939453	0.9921630249023438	-0.008300339698791504	-0.03702569961547852	1.0165900268554688	-0.002931819915771484	-0.021037700653076172	1.0425899658203126	-0.021446300506591798	0.0031786999702453607	1.055050048828125	0.01454170036315918	-0.13643600463867187	1.030739990234375	0.009453020095825194	-0.11510500335693359	1.0388800048828124	0.0024535200595855707	-0.09512030029296875	1.047550048828125	-0.01370419979095459	-0.0616593017578125	1.06602001953125	-0.009903340339660645	-0.041887500762939456	1.03627001953125	-0.006298769950866699	-0.057199298858642576	1.0222999877929688	-0.017204099655151368	-0.08206990051269532	1.0265699462890625	-0.040988300323486326	-0.06538749694824218	1.0645699462890625	-0.02344610023498535	-0.03687049865722656	1.021739990234375	-0.023130199432373048	-0.052530200958251956	1.0086199951171875	-0.037220901489257815	-0.07483519744873048	1.0130999755859376	-0.055814498901367186	-0.05788169860839844	1.0468199462890626	-0.07822550201416016	-0.11803600311279297	1.0144600219726563	-0.0737948989868164	-0.09608589935302735	1.0168599853515625	-0.07048500061035157	-0.07725879669189453	1.0212000122070313	-0.06519969940185547	-0.04754299926757812	1.0283399658203125	-0.053387401580810546	0.011448300361633301	1.08118994140625
11	0.36666666666666664	0.002148679971694946	-0.04691360092163086	0.9920380249023437	-0.008693329811096192	-0.036980899810791015	1.0164600219726563	-0.003473850011825561	-0.02097279930114746	1.04247998046875	-0.02202680015563965	0.003194499969482422	1.0548900146484375	0.014107799530029297	-0.1362449951171875	1.0304000244140625	0.008990429878234863	-0.11497599792480469	1.0386400146484376	0.001974429965019226	-0.09501940155029297	1.0473199462890626	-0.014017100334167481	-0.061576801300048827	1.0657900390625	-0.010311599731445312	-0.04180690002441406	1.0360699462890626	-0.006761809825897217	-0.05713589859008789	1.0218300170898438	-0.017869600296020506	-0.08201270294189453	1.0263199462890624	-0.041419498443603514	-0.06549749755859376	1.06447998046875	-0.02391819953918457	-0.03687820053100586	1.0214000244140624	-0.023546699523925782	-0.052423500061035154	1.0083499755859375	-0.03769889831542969	-0.07477239990234374	1.0129199829101563	-0.05626750183105469	-0.05789440155029297	1.04668994140625	-0.0783510971069336	-0.11801499938964843	1.0141599731445312	-0.07404850006103515	-0.0960551986694336	1.0165999755859374	-0.07081089782714843	-0.07721710205078125	1.0209000244140625	-0.06574810028076172	-0.0474010009765625	1.028199951171875	-0.05397109985351563	0.011484499931335448	1.08097998046875
12	0.4	0.00165224003791809	-0.046969898223876955	0.9917589721679687	-0.009145950317382813	-0.03706050109863281	1.0160399780273437	-0.00394333004951477	-0.021084999084472655	1.042199951171875	-0.02245509910583496	0.003126460075378418	1.05472998046875	0.01368570041656494	-0.13623800659179688	1.0301199951171875	0.008523079872131347	-0.11494200134277344	1.0383699951171874	0.001435960054397583	-0.09497989654541016	1.0471400146484375	-0.014758099555969238	-0.06166630172729492	1.065530029296875	-0.0104375	-0.041965599060058596	1.0360799560546874	-0.007198019981384278	-0.05728200149536133	1.0215999755859375	-0.01848080062866211	-0.08203450012207031	1.0258800048828125	-0.042040699005126955	-0.06554180145263672	1.063969970703125	-0.024294599533081055	-0.03688909912109375	1.0209500122070312	-0.02393320083618164	-0.052662601470947264	1.0081500244140624	-0.03814979934692383	-0.07490059661865234	1.0127899780273437	-0.05667879867553711	-0.057938400268554686	1.046280029296875	-0.07873709869384765	-0.11812799835205078	1.0138900146484375	-0.07441339874267579	-0.09617510223388671	1.0162999877929688	-0.07119349670410156	-0.07731130218505859	1.0205800170898438	-0.06625299835205078	-0.04737540054321289	1.0278900146484375	-0.05447549819946289	0.011435299873352052	1.080780029296875
13	0.43333333333333335	0.001331400036811828	-0.04731790161132812	0.99160302734375	-0.0096181001663208	-0.03732880020141602	1.0158400268554688	-0.004587860107421875	-0.021168899536132813	1.042010009765625	-0.023117700576782228	0.0029228401184082033	1.0544000244140626	0.013226900100708008	-0.13636199951171876	1.0300799560546876	0.008063630104064941	-0.11512200164794922	1.03827001953125	0.000938286006450653	-0.09517269897460938	1.04697998046875	-0.01523610019683838	-0.06182749938964844	1.0654000244140625	-0.010859999656677246	-0.04226210021972656	1.0356700439453126	-0.007682050228118896	-0.05778670120239258	1.0211099853515626	-0.019139499664306642	-0.08228579711914062	1.0256700439453126	-0.04246200180053711	-0.06579149627685547	1.0640699462890626	-0.024818599700927733	-0.037153701782226566	1.0208200073242188	-0.024354999542236327	-0.052830001831054685	1.00802001953125	-0.03847489929199219	-0.07523490142822266	1.0126099853515624	-0.05721960067749023	-0.05822100067138672	1.04618994140625	-0.07901200103759766	-0.11852400207519531	1.01397998046875	-0.07476609802246094	-0.09653260040283203	1.0163499755859375	-0.07159649658203125	-0.07764779663085937	1.0205399780273436	-0.06673049926757812	-0.04771340179443359	1.02775	-0.05501800155639648	0.011211600303649902	1.0803499755859376
14	0.4666666666666667	0.000758460998535156	-0.047548301696777345	0.9909420166015624	-0.01013510036468506	-0.037532901763916014	1.015530029296875	-0.005164820194244385	-0.021454999923706055	1.0415999755859375	-0.02371809959411621	0.0027418301105499258	1.0540799560546874	0.012704299926757813	-0.1364250030517578	1.02943994140625	0.00757358980178833	-0.11521399688720703	1.037699951171875	0.00043673399090766904	-0.09530960083007813	1.046469970703125	-0.015868399620056154	-0.06212239837646484	1.0653199462890626	-0.011765999794006348	-0.042348899841308595	1.0348199462890626	-0.008224340438842773	-0.05800740051269531	1.0205900268554688	-0.019691699981689452	-0.08236389923095704	1.0250799560546875	-0.04323450088500977	-0.06590290069580078	1.064010009765625	-0.025315399169921874	-0.03738399887084961	1.0204500122070312	-0.024788299560546876	-0.05296969985961914	1.0073599853515625	-0.03892929840087891	-0.07552619934082032	1.0124299926757812	-0.05771340179443359	-0.05842219924926758	1.04572998046875	-0.07919550323486328	-0.11878600311279297	1.0136400146484374	-0.07505239868164063	-0.09681749725341797	1.0159500122070313	-0.07199659729003906	-0.07793009948730469	1.0201900024414063	-0.06730480194091797	-0.04798350143432617	1.027550048828125	-0.05562459945678711	0.010975000381469726	1.0799300537109375
